<svg xmlns="http://www.w3.org/2000/svg" xmlns:xlink="http://www.w3.org/1999/xlink" width="500" zoomAndPan="magnify" viewBox="0 0 375 374.999991" height="500" preserveAspectRatio="xMidYMid meet" version="1.0"><defs><g/></defs><g fill="#000000" fill-opacity="1"><g transform="translate(166.030467, 267.133319)"><g><path d="M 18.890625 -42.234375 C 13.390625 -35.035156 10.640625 -27.253906 10.640625 -18.890625 C 10.640625 -8.941406 14.820312 -1.21875 23.1875 4.28125 C 28.050781 7.5625 33.578125 9.203125 39.765625 9.203125 C 45.960938 9.203125 51.335938 7.988281 55.890625 5.5625 C 64.472656 1.113281 69.289062 -6.347656 70.34375 -16.828125 C 70.445312 -17.566406 70.5 -18.3125 70.5 -19.0625 C 70.5 -22.976562 69.414062 -27.210938 67.25 -31.765625 C 65.082031 -36.316406 61.5625 -40.492188 56.6875 -44.296875 L 28.109375 -66.859375 C 21.859375 -71.722656 18.734375 -78.019531 18.734375 -85.75 C 18.734375 -93.476562 21.222656 -100.015625 26.203125 -105.359375 C 31.179688 -110.703125 37.90625 -113.375 46.375 -113.375 C 50.601562 -113.375 55.207031 -112.847656 60.1875 -111.796875 L 66.53125 -111.796875 L 66.859375 -92.265625 L 65.265625 -92.265625 C 65.160156 -97.347656 63.332031 -101.34375 59.78125 -104.25 C 56.238281 -107.15625 51.789062 -108.609375 46.4375 -108.609375 C 41.09375 -108.609375 36.617188 -106.835938 33.015625 -103.296875 C 29.421875 -99.753906 27.625 -95.203125 27.625 -89.640625 C 27.625 -84.078125 29.957031 -79.445312 34.625 -75.75 L 64 -52.5625 C 75.644531 -43.351562 81.46875 -32.238281 81.46875 -19.21875 C 81.46875 -9.476562 77.601562 -1.113281 69.875 5.875 C 63.195312 11.90625 54.300781 14.921875 43.1875 14.921875 C 36.414062 14.921875 30.382812 13.648438 25.09375 11.109375 C 15.132812 6.453125 9.148438 -1.484375 7.140625 -12.703125 C 6.828125 -14.398438 6.671875 -16.546875 6.671875 -19.140625 C 6.671875 -21.734375 7.410156 -25.273438 8.890625 -29.765625 C 10.367188 -34.265625 13.226562 -38.789062 17.46875 -43.34375 Z M 18.890625 -42.234375 "/></g></g></g><g fill="#000000" fill-opacity="1"><g transform="translate(101.897841, 235.88332)"><g><path d="M 150.546875 27 C 146.097656 28.164062 142.148438 28.75 138.703125 28.75 C 135.265625 28.75 132.222656 28.535156 129.578125 28.109375 C 126.929688 27.679688 124.097656 26.859375 121.078125 25.640625 C 118.066406 24.421875 115.234375 23.019531 112.578125 21.4375 C 109.929688 19.851562 107.285156 17.894531 104.640625 15.5625 C 99.773438 11.644531 95.359375 7.410156 91.390625 2.859375 C 87.421875 -1.691406 79.769531 -10.238281 68.4375 -22.78125 C 57.113281 -35.332031 49.597656 -43.671875 45.890625 -47.796875 C 42.179688 -51.921875 39.320312 -54.09375 37.3125 -54.3125 L 37.3125 -55.890625 C 43.457031 -55.890625 47.5625 -56.019531 49.625 -56.28125 C 51.6875 -56.550781 53.878906 -57.03125 56.203125 -57.71875 C 58.535156 -58.40625 60.5 -59.332031 62.09375 -60.5 C 68.332031 -64.519531 71.453125 -71.191406 71.453125 -80.515625 C 71.453125 -88.242188 69.734375 -94.4375 66.296875 -99.09375 C 62.859375 -103.75 58.015625 -106.128906 51.765625 -106.234375 L 32.078125 -106.234375 L 32.078125 -11.59375 C 32.078125 -8.945312 33.054688 -6.617188 35.015625 -4.609375 C 36.972656 -2.597656 39.378906 -1.59375 42.234375 -1.59375 L 44.140625 -1.59375 L 44.296875 0 L 9.53125 0 L 9.53125 -1.59375 L 11.59375 -1.59375 C 14.238281 -1.59375 16.566406 -2.539062 18.578125 -4.4375 C 20.585938 -6.34375 21.644531 -8.675781 21.75 -11.4375 L 21.75 -99.5625 C 21.644531 -102.3125 20.613281 -104.664062 18.65625 -106.625 C 16.695312 -108.582031 14.34375 -109.5625 11.59375 -109.5625 L 9.53125 -109.5625 L 9.53125 -111.15625 L 52.40625 -111.15625 C 61.71875 -111.15625 69.207031 -108.535156 74.875 -103.296875 C 80.539062 -98.054688 83.375 -91.117188 83.375 -82.484375 C 83.375 -73.859375 80.78125 -66.445312 75.59375 -60.25 C 70.40625 -54.0625 64.050781 -50.96875 56.53125 -50.96875 C 56.53125 -50.96875 56.476562 -50.96875 56.375 -50.96875 C 59.96875 -47.15625 64.039062 -42.710938 68.59375 -37.640625 C 86.914062 -17.410156 98.671875 -4.707031 103.859375 0.46875 C 109.046875 5.65625 113.625 9.914062 117.59375 13.25 C 121.5625 16.59375 125.082031 19.054688 128.15625 20.640625 C 134.394531 24.023438 140.585938 25.71875 146.734375 25.71875 C 148.003906 25.71875 149.273438 25.613281 150.546875 25.40625 Z M 150.546875 27 "/></g></g></g><path fill="#e1e1e1" d="M 92.414062 179.496094 L 267.890625 179.496094 C 268.953125 179.496094 269.96875 179.917969 270.71875 180.667969 C 271.46875 181.417969 271.890625 182.4375 271.890625 183.5 L 271.890625 191.5 C 271.890625 192.5625 271.46875 193.582031 270.71875 194.332031 C 269.96875 195.082031 268.953125 195.503906 267.890625 195.503906 L 92.414062 195.503906 C 90.207031 195.503906 88.414062 193.710938 88.414062 191.5 L 88.414062 183.5 C 88.414062 181.289062 90.207031 179.496094 92.414062 179.496094 Z M 92.414062 179.496094 " fill-opacity="1" fill-rule="nonzero"/><g fill="#000000" fill-opacity="1"><g transform="translate(96.232132, 190.499987)"><g><path d="M 6.34375 -1.234375 L 6.65625 -0.234375 C 6.519531 -0.128906 6.351562 -0.0507812 6.15625 0 C 5.96875 0.0625 5.765625 0.09375 5.546875 0.09375 C 4.796875 0.09375 4.207031 -0.238281 3.78125 -0.90625 L 2.75 -2.484375 C 2.644531 -2.648438 2.535156 -2.765625 2.421875 -2.828125 C 2.304688 -2.898438 2.179688 -2.9375 2.046875 -2.9375 L 2 -2.9375 L 2 0 L 0.734375 0 L 0.734375 -7.109375 L 2.9375 -7.109375 C 3.84375 -7.109375 4.523438 -6.921875 4.984375 -6.546875 C 5.453125 -6.171875 5.6875 -5.660156 5.6875 -5.015625 C 5.6875 -4.617188 5.597656 -4.273438 5.421875 -3.984375 C 5.253906 -3.703125 5.019531 -3.476562 4.71875 -3.3125 C 4.414062 -3.144531 4.078125 -3.039062 3.703125 -3 C 3.898438 -2.882812 4.082031 -2.703125 4.25 -2.453125 L 4.8125 -1.625 C 4.957031 -1.40625 5.09375 -1.253906 5.21875 -1.171875 C 5.351562 -1.097656 5.519531 -1.0625 5.71875 -1.0625 C 5.945312 -1.0625 6.15625 -1.117188 6.34375 -1.234375 Z M 2.859375 -6.046875 L 2 -6.046875 L 2 -3.953125 L 2.796875 -3.953125 C 3.335938 -3.953125 3.738281 -4.035156 4 -4.203125 C 4.257812 -4.367188 4.390625 -4.640625 4.390625 -5.015625 C 4.390625 -5.703125 3.878906 -6.046875 2.859375 -6.046875 Z M 2.859375 -6.046875 "/></g></g></g><g fill="#000000" fill-opacity="1"><g transform="translate(110.129602, 190.499987)"><g><path d="M 0.734375 0 L 0.734375 -7.109375 L 2.03125 -7.109375 L 2.03125 0 Z M 0.734375 0 "/></g></g></g><g fill="#000000" fill-opacity="1"><g transform="translate(120.514308, 190.499987)"><g><path d="M 2.9375 0.09375 C 2.101562 0.09375 1.453125 -0.09375 0.984375 -0.46875 C 0.523438 -0.84375 0.257812 -1.390625 0.1875 -2.109375 L 1.40625 -2.296875 C 1.53125 -1.441406 2.0625 -1.015625 3 -1.015625 C 3.40625 -1.015625 3.722656 -1.09375 3.953125 -1.25 C 4.179688 -1.414062 4.296875 -1.644531 4.296875 -1.9375 C 4.296875 -2.207031 4.179688 -2.410156 3.953125 -2.546875 C 3.722656 -2.679688 3.359375 -2.8125 2.859375 -2.9375 C 2.390625 -3.050781 1.988281 -3.1875 1.65625 -3.34375 C 1.320312 -3.5 1.066406 -3.707031 0.890625 -3.96875 C 0.710938 -4.238281 0.625 -4.59375 0.625 -5.03125 C 0.625 -5.457031 0.734375 -5.832031 0.953125 -6.15625 C 1.171875 -6.488281 1.46875 -6.75 1.84375 -6.9375 C 2.226562 -7.125 2.671875 -7.21875 3.171875 -7.21875 C 3.835938 -7.21875 4.378906 -7.039062 4.796875 -6.6875 C 5.210938 -6.34375 5.457031 -5.867188 5.53125 -5.265625 L 4.390625 -5.0625 C 4.253906 -5.757812 3.828125 -6.109375 3.109375 -6.109375 C 2.765625 -6.109375 2.484375 -6.015625 2.265625 -5.828125 C 2.046875 -5.648438 1.9375 -5.414062 1.9375 -5.125 C 1.9375 -4.832031 2.039062 -4.609375 2.25 -4.453125 C 2.46875 -4.296875 2.835938 -4.15625 3.359375 -4.03125 C 3.816406 -3.925781 4.210938 -3.800781 4.546875 -3.65625 C 4.878906 -3.519531 5.132812 -3.320312 5.3125 -3.0625 C 5.5 -2.8125 5.59375 -2.460938 5.59375 -2.015625 C 5.59375 -1.609375 5.476562 -1.242188 5.25 -0.921875 C 5.03125 -0.609375 4.722656 -0.359375 4.328125 -0.171875 C 3.929688 0.00390625 3.46875 0.09375 2.9375 0.09375 Z M 2.9375 0.09375 "/></g></g></g><g fill="#000000" fill-opacity="1"><g transform="translate(134.00145, 190.499987)"><g><path d="M 0.734375 0 L 0.734375 -7.109375 L 2.03125 -7.109375 L 2.03125 -4.171875 L 5.40625 -4.171875 L 5.40625 -7.109375 L 6.703125 -7.109375 L 6.703125 0 L 5.40625 0 L 5.40625 -3.03125 L 2.03125 -3.03125 L 2.03125 0 Z M 0.734375 0 "/></g></g></g><g fill="#000000" fill-opacity="1"><g transform="translate(149.049817, 190.499987)"><g><path d="M -0.09375 0 L 2.9375 -7.109375 L 4.03125 -7.109375 L 6.953125 0 L 5.625 0 L 4.984375 -1.625 L 1.890625 -1.625 L 1.21875 0 Z M 2.328125 -2.71875 L 4.5625 -2.71875 L 3.46875 -5.515625 Z M 2.328125 -2.71875 "/></g></g></g><g fill="#000000" fill-opacity="1"><g transform="translate(163.55776, 190.499987)"><g><path d="M 0.734375 0 L 0.734375 -7.109375 L 3.09375 -7.109375 C 4 -7.109375 4.691406 -6.941406 5.171875 -6.609375 C 5.660156 -6.285156 5.90625 -5.804688 5.90625 -5.171875 C 5.90625 -4.828125 5.820312 -4.519531 5.65625 -4.25 C 5.488281 -3.976562 5.25 -3.765625 4.9375 -3.609375 C 5.257812 -3.484375 5.519531 -3.28125 5.71875 -3 C 5.914062 -2.71875 6.015625 -2.394531 6.015625 -2.03125 C 6.015625 -1.414062 5.78125 -0.921875 5.3125 -0.546875 C 4.851562 -0.179688 4.222656 0 3.421875 0 Z M 3.109375 -6.046875 L 2 -6.046875 L 2 -4.109375 L 3.09375 -4.109375 C 3.601562 -4.109375 3.976562 -4.1875 4.21875 -4.34375 C 4.46875 -4.507812 4.59375 -4.765625 4.59375 -5.109375 C 4.59375 -5.429688 4.472656 -5.664062 4.234375 -5.8125 C 4.003906 -5.96875 3.628906 -6.046875 3.109375 -6.046875 Z M 2 -1.0625 L 3.390625 -1.0625 C 3.796875 -1.0625 4.117188 -1.140625 4.359375 -1.296875 C 4.597656 -1.460938 4.71875 -1.71875 4.71875 -2.0625 C 4.71875 -2.707031 4.265625 -3.03125 3.359375 -3.03125 L 2 -3.03125 Z M 2 -1.0625 "/></g></g></g><g fill="#000000" fill-opacity="1"><g transform="translate(177.515276, 190.499987)"><g><path d="M 0.734375 0 L 0.734375 -7.109375 L 2.03125 -7.109375 L 2.03125 -4.171875 L 5.40625 -4.171875 L 5.40625 -7.109375 L 6.703125 -7.109375 L 6.703125 0 L 5.40625 0 L 5.40625 -3.03125 L 2.03125 -3.03125 L 2.03125 0 Z M 0.734375 0 "/></g></g></g><g fill="#000000" fill-opacity="1"><g transform="translate(192.563638, 190.499987)"><g/></g></g><g fill="#000000" fill-opacity="1"><g transform="translate(202.618096, 190.499987)"><g><path d="M 2.9375 0.09375 C 2.101562 0.09375 1.453125 -0.09375 0.984375 -0.46875 C 0.523438 -0.84375 0.257812 -1.390625 0.1875 -2.109375 L 1.40625 -2.296875 C 1.53125 -1.441406 2.0625 -1.015625 3 -1.015625 C 3.40625 -1.015625 3.722656 -1.09375 3.953125 -1.25 C 4.179688 -1.414062 4.296875 -1.644531 4.296875 -1.9375 C 4.296875 -2.207031 4.179688 -2.410156 3.953125 -2.546875 C 3.722656 -2.679688 3.359375 -2.8125 2.859375 -2.9375 C 2.390625 -3.050781 1.988281 -3.1875 1.65625 -3.34375 C 1.320312 -3.5 1.066406 -3.707031 0.890625 -3.96875 C 0.710938 -4.238281 0.625 -4.59375 0.625 -5.03125 C 0.625 -5.457031 0.734375 -5.832031 0.953125 -6.15625 C 1.171875 -6.488281 1.46875 -6.75 1.84375 -6.9375 C 2.226562 -7.125 2.671875 -7.21875 3.171875 -7.21875 C 3.835938 -7.21875 4.378906 -7.039062 4.796875 -6.6875 C 5.210938 -6.34375 5.457031 -5.867188 5.53125 -5.265625 L 4.390625 -5.0625 C 4.253906 -5.757812 3.828125 -6.109375 3.109375 -6.109375 C 2.765625 -6.109375 2.484375 -6.015625 2.265625 -5.828125 C 2.046875 -5.648438 1.9375 -5.414062 1.9375 -5.125 C 1.9375 -4.832031 2.039062 -4.609375 2.25 -4.453125 C 2.46875 -4.296875 2.835938 -4.15625 3.359375 -4.03125 C 3.816406 -3.925781 4.210938 -3.800781 4.546875 -3.65625 C 4.878906 -3.519531 5.132812 -3.320312 5.3125 -3.0625 C 5.5 -2.8125 5.59375 -2.460938 5.59375 -2.015625 C 5.59375 -1.609375 5.476562 -1.242188 5.25 -0.921875 C 5.03125 -0.609375 4.722656 -0.359375 4.328125 -0.171875 C 3.929688 0.00390625 3.46875 0.09375 2.9375 0.09375 Z M 2.9375 0.09375 "/></g></g></g><g fill="#000000" fill-opacity="1"><g transform="translate(216.105232, 190.499987)"><g><path d="M 0.734375 0 L 0.734375 -7.109375 L 2.03125 -7.109375 L 2.03125 0 Z M 0.734375 0 "/></g></g></g><g fill="#000000" fill-opacity="1"><g transform="translate(226.489944, 190.499987)"><g><path d="M 5.40625 -7.109375 L 6.65625 -7.109375 L 6.65625 0 L 5.515625 0 L 1.984375 -4.953125 L 1.984375 0 L 0.734375 0 L 0.734375 -7.109375 L 1.875 -7.109375 L 5.40625 -2.15625 Z M 5.40625 -7.109375 "/></g></g></g><g fill="#000000" fill-opacity="1"><g transform="translate(241.498274, 190.499987)"><g><path d="M 4.203125 -3.703125 L 7.015625 -3.703125 L 7.015625 0 L 5.984375 0 L 5.875 -0.765625 C 5.644531 -0.453125 5.347656 -0.226562 4.984375 -0.09375 C 4.628906 0.03125 4.234375 0.09375 3.796875 0.09375 C 3.117188 0.09375 2.523438 -0.046875 2.015625 -0.328125 C 1.515625 -0.609375 1.128906 -1.007812 0.859375 -1.53125 C 0.585938 -2.0625 0.453125 -2.691406 0.453125 -3.421875 C 0.453125 -4.171875 0.601562 -4.828125 0.90625 -5.390625 C 1.21875 -5.960938 1.660156 -6.410156 2.234375 -6.734375 C 2.804688 -7.054688 3.476562 -7.21875 4.25 -7.21875 C 4.875 -7.21875 5.410156 -7.097656 5.859375 -6.859375 C 6.304688 -6.628906 6.675781 -6.28125 6.96875 -5.8125 L 5.96875 -5.078125 C 5.789062 -5.398438 5.546875 -5.632812 5.234375 -5.78125 C 4.929688 -5.9375 4.597656 -6.015625 4.234375 -6.015625 C 3.734375 -6.015625 3.300781 -5.90625 2.9375 -5.6875 C 2.570312 -5.476562 2.289062 -5.175781 2.09375 -4.78125 C 1.894531 -4.394531 1.796875 -3.945312 1.796875 -3.4375 C 1.796875 -2.6875 1.984375 -2.101562 2.359375 -1.6875 C 2.742188 -1.28125 3.265625 -1.078125 3.921875 -1.078125 C 4.234375 -1.078125 4.53125 -1.132812 4.8125 -1.25 C 5.09375 -1.363281 5.320312 -1.53125 5.5 -1.75 C 5.675781 -1.976562 5.765625 -2.253906 5.765625 -2.578125 L 5.765625 -2.640625 L 4.203125 -2.640625 Z M 4.203125 -3.703125 "/></g></g></g><g fill="#000000" fill-opacity="1"><g transform="translate(256.646725, 190.499987)"><g><path d="M 0.734375 0 L 0.734375 -7.109375 L 2.03125 -7.109375 L 2.03125 -4.171875 L 5.40625 -4.171875 L 5.40625 -7.109375 L 6.703125 -7.109375 L 6.703125 0 L 5.40625 0 L 5.40625 -3.03125 L 2.03125 -3.03125 L 2.03125 0 Z M 0.734375 0 "/></g></g></g></svg>